<svg version="1.1" id="Layer_1" xmlns="http://www.w3.org/2000/svg" xmlns:xlink="http://www.w3.org/1999/xlink" x="0px" y="0px"
	 width="100%" viewBox="0 0 512 512" enable-background="new 0 0 512 512" xml:space="preserve">
<path fill="#000000" opacity="1.000000" stroke="none" 
	d="
M331.000000,513.000000 
	C220.693466,513.000000 110.886925,513.000000 1.040193,513.000000 
	C1.040193,342.401764 1.040193,171.803528 1.040193,1.102647 
	C171.556549,1.102647 342.113159,1.102647 512.834900,1.102647 
	C512.834900,171.666534 512.834900,342.333252 512.834900,513.000000 
	C452.470184,513.000000 391.985077,513.000000 331.000000,513.000000 
M369.500000,169.000000 
	C388.988831,169.000000 408.479645,169.159210 427.965363,168.912323 
	C434.647125,168.827682 440.166718,165.880859 444.395752,160.295746 
	C448.424713,154.974792 449.120728,149.152618 449.062408,142.811905 
	C448.953979,131.023773 438.959808,120.975792 427.089417,120.979401 
	C313.654053,121.013878 200.218674,120.997749 86.783318,121.022652 
	C85.170029,121.023010 83.509445,121.177948 81.951187,121.575378 
	C70.838074,124.409805 65.064911,134.285416 64.766037,144.932068 
	C64.385849,158.475266 75.508797,169.237289 89.159851,169.185394 
	C182.272125,168.831421 275.386383,169.000000 369.500000,169.000000 
M158.500000,233.000000 
	C134.347122,233.000000 110.193100,232.870514 86.042107,233.083954 
	C79.349579,233.143082 73.845848,236.134399 69.611519,241.699692 
	C65.569557,247.012146 64.880234,252.839096 64.937340,259.180267 
	C65.043579,270.976562 75.039093,281.023560 86.902740,281.020050 
	C200.338089,280.986481 313.773438,281.002228 427.208801,280.977570 
	C428.822876,280.977234 430.485260,280.828918 432.043182,280.429840 
	C443.159790,277.582123 448.930084,267.736511 449.233429,257.075897 
	C449.619080,243.522369 438.487915,232.758652 424.848022,232.814438 
	C336.399933,233.176270 247.949600,233.000000 158.500000,233.000000 
M74.564957,389.042236 
	C78.468475,390.361481 82.369926,392.826324 86.275826,392.833374 
	C200.076584,393.039307 313.877777,393.001923 427.678925,392.978455 
	C429.129761,392.978149 430.624054,392.820221 432.024445,392.454224 
	C443.153839,389.545380 448.915649,379.809998 449.231537,369.095093 
	C449.631836,355.518768 438.480713,344.777588 424.855713,344.817047 
	C312.888306,345.141174 200.919571,345.046356 88.951332,344.954224 
	C70.377075,344.938934 62.566498,359.165924 65.306580,375.232300 
	C66.191467,380.420807 68.667702,385.696075 74.564957,389.042236 
z"/>
<path fill="#FFFFFF" opacity="1.000000" stroke="none" 
	d="
M369.000000,169.000000 
	C275.386383,169.000000 182.272125,168.831421 89.159851,169.185394 
	C75.508797,169.237289 64.385849,158.475266 64.766037,144.932068 
	C65.064911,134.285416 70.838074,124.409805 81.951187,121.575378 
	C83.509445,121.177948 85.170029,121.023010 86.783318,121.022652 
	C200.218674,120.997749 313.654053,121.013878 427.089417,120.979401 
	C438.959808,120.975792 448.953979,131.023773 449.062408,142.811905 
	C449.120728,149.152618 448.424713,154.974792 444.395752,160.295746 
	C440.166718,165.880859 434.647125,168.827682 427.965363,168.912323 
	C408.479645,169.159210 388.988831,169.000000 369.000000,169.000000 
z"/>
<path fill="#FFFFFF" opacity="1.000000" stroke="none" 
	d="
M159.000000,233.000000 
	C247.949600,233.000000 336.399933,233.176270 424.848022,232.814438 
	C438.487915,232.758652 449.619080,243.522369 449.233429,257.075897 
	C448.930084,267.736511 443.159790,277.582123 432.043182,280.429840 
	C430.485260,280.828918 428.822876,280.977234 427.208801,280.977570 
	C313.773438,281.002228 200.338089,280.986481 86.902740,281.020050 
	C75.039093,281.023560 65.043579,270.976562 64.937340,259.180267 
	C64.880234,252.839096 65.569557,247.012146 69.611519,241.699692 
	C73.845848,236.134399 79.349579,233.143082 86.042107,233.083954 
	C110.193100,232.870514 134.347122,233.000000 159.000000,233.000000 
z"/>
<path fill="#FFFFFF" opacity="1.000000" stroke="none" 
	d="
M74.286522,388.781250 
	C68.667702,385.696075 66.191467,380.420807 65.306580,375.232300 
	C62.566498,359.165924 70.377075,344.938934 88.951332,344.954224 
	C200.919571,345.046356 312.888306,345.141174 424.855713,344.817047 
	C438.480713,344.777588 449.631836,355.518768 449.231537,369.095093 
	C448.915649,379.809998 443.153839,389.545380 432.024445,392.454224 
	C430.624054,392.820221 429.129761,392.978149 427.678925,392.978455 
	C313.877777,393.001923 200.076584,393.039307 86.275826,392.833374 
	C82.369926,392.826324 78.468475,390.361481 74.286522,388.781250 
z"/>
</svg>